  <svg width="24" height="9" viewBox="0 0 24 9" fill="none" xmlns="http://www.w3.org/2000/svg">
        <path d="M0.421558 8.50098V0.100921H1.15356L4.99359 6.65296H4.60959L8.41361 0.100921H9.14561V8.50098H8.29361V1.43293H8.49761L4.99359 7.43297H4.57358L1.04556 1.43293H1.27356V8.50098H0.421558ZM15.6506 8.50098V7.10897L15.6146 6.88097V4.55295C15.6146 4.01695 15.4626 3.60494 15.1586 3.31694C14.8626 3.02894 14.4186 2.88494 13.8266 2.88494C13.4186 2.88494 13.0306 2.95294 12.6626 3.08894C12.2946 3.22494 11.9826 3.40494 11.7266 3.62894L11.3426 2.99294C11.6626 2.72094 12.0466 2.51294 12.4946 2.36894C12.9426 2.21694 13.4146 2.14093 13.9106 2.14093C14.7266 2.14093 15.3546 2.34494 15.7946 2.75294C16.2426 3.15294 16.4666 3.76495 16.4666 4.58895V8.50098H15.6506ZM13.4786 8.56098C13.0066 8.56098 12.5946 8.48498 12.2426 8.33298C11.8986 8.17297 11.6346 7.95697 11.4506 7.68497C11.2666 7.40497 11.1746 7.08497 11.1746 6.72496C11.1746 6.39696 11.2506 6.10096 11.4026 5.83696C11.5626 5.56496 11.8186 5.34896 12.1706 5.18895C12.5306 5.02095 13.0106 4.93695 13.6106 4.93695H15.7826V5.57296H13.6346C13.0266 5.57296 12.6026 5.68096 12.3626 5.89696C12.1306 6.11296 12.0146 6.38096 12.0146 6.70096C12.0146 7.06097 12.1546 7.34897 12.4346 7.56497C12.7146 7.78097 13.1066 7.88897 13.6106 7.88897C14.0906 7.88897 14.5026 7.78097 14.8466 7.56497C15.1986 7.34097 15.4546 7.02097 15.6146 6.60496L15.8066 7.19297C15.6466 7.60897 15.3666 7.94097 14.9666 8.18897C14.5746 8.43698 14.0786 8.56098 13.4786 8.56098ZM17.8207 8.50098L20.4848 5.04495L20.4728 5.46496L17.9407 2.20094H18.9007L20.9768 4.90095L20.6168 4.88895L22.6928 2.20094H23.6288L21.0728 5.50096L21.0848 5.04495L23.7728 8.50098H22.8008L20.6048 5.62096L20.9408 5.66896L18.7807 8.50098H17.8207Z" fill="url(#paint0_linear_757_12605)" />
        <defs>
          <linearGradient id="paint0_linear_757_12605" x1="11.5029" y1="-1.49902" x2="11.5029" y2="9.50098" gradientUnits="userSpaceOnUse">
            <stop stop-color="#BF72FA" />
            <stop offset="1" stop-color="#A33FF9" />
          </linearGradient>
        </defs>
      </svg>