<svg width="53" height="31" viewBox="0 0 53 31" fill="none" xmlns="http://www.w3.org/2000/svg">
<g filter="url(#filter0_di_687_7494)">
<path d="M23.9148 9.99995C23.3673 10.4925 22.8376 10.9854 22.3256 11.4966C21.2651 12.5542 19.2896 15.5338 17.746 13.5668C16.9742 12.5832 16.8168 11.3776 16.3527 10.2561C16.2319 10.972 16.0572 11.6868 15.9723 12.4033C15.8034 13.7824 15.9097 15.8129 15.4739 17.0614C15.1893 17.8999 14.1282 18.0061 13.7303 17.191C12.9002 15.4704 13.7769 9.76012 14.3681 7.86815C14.5966 7.1543 15.1263 5.67408 15.6384 5.16289C16.6075 4.19336 17.5902 4.44475 17.965 5.54664C18.6263 7.65905 17.7225 13.8715 21.148 10.1287C22.3391 8.80422 23.8638 6.91143 25.1107 5.48026C25.5878 4.91458 26.2564 4.67553 26.9706 4.8861C27.6847 5.09666 28.0863 5.71436 28.0731 6.43216C28.0609 7.09613 27.977 7.75878 27.8039 8.38389C27.3035 10.2237 26.9642 12.0844 26.8037 13.9842C26.7334 14.8805 27.0567 16.8251 26.2931 17.3497C25.8748 17.6472 25.4268 17.603 25.0011 17.326C23.3337 16.2363 23.6238 12.1667 23.8883 10.4662C23.9092 10.305 23.9477 10.1621 23.9148 9.99995Z" fill="#FFF8E5"/>
<path d="M32.9153 7.66986C33.006 7.61767 33.115 7.54786 33.2054 7.51362C33.8204 7.25564 34.4572 7.76995 34.4095 8.41531C34.3206 9.34714 33.9247 10.381 33.746 11.3112C33.4499 12.7778 35.0972 13.0054 34.2184 13.9407C33.321 14.9116 31.9891 13.1459 31.7886 12.3344C31.3287 12.9363 30.85 13.5917 30.3197 14.1205C27.3939 17.0467 25.3484 11.1213 30.1455 7.96012C30.5997 7.66328 31.1427 7.42193 31.6986 7.45008C32.1111 7.47559 32.5039 7.59051 32.9153 7.66986ZM30.6712 11.5959C31.129 11.1016 31.8676 9.98428 31.9848 9.46585C31.5088 8.99039 30.2456 10.3315 29.8171 11.1853C29.0905 12.626 29.9024 12.4075 30.6712 11.5959Z" fill="#FFF8E5"/>
<path d="M38.4077 10.9659C38.8755 9.93332 39.274 8.75586 39.6797 8.17092C40.38 7.17851 41.2671 7.75126 41.5726 8.70828C42.5738 11.8681 43.3114 16.6745 40.7324 19.284C38.7568 21.2942 34.2419 20.8164 33.8326 17.6854C33.7528 17.1454 33.9604 16.5928 34.4505 16.2966C34.9589 15.9828 35.5142 16.0468 36.011 16.3611C36.2417 16.509 36.4175 16.7096 36.6299 16.8751C38.1684 18.1419 39.4968 17.1611 39.762 15.4247C39.8629 14.8162 39.7623 13.4501 39.5938 12.8546C39.0778 13.5811 38.6522 14.2734 37.8717 14.7437C36.7101 15.4405 35.512 15.1851 34.7608 14.0584C33.7829 12.5685 33.9982 6.70241 36.1694 7.72955C36.9344 8.10261 36.604 9.47878 36.5062 10.8951C36.3339 13.441 37.359 13.3342 38.4077 10.9659Z" fill="#FFF8E5"/>
<path d="M50.3958 10.8448C50.3431 13.716 46.5461 19.1214 43.4574 16.2464C42.5925 15.4407 42.2517 14.4471 42.327 13.2817C42.4058 11.9189 43.0051 10.5656 43.9739 9.61398C44.2846 9.31451 44.7 9.17852 44.9927 8.87872C45.3034 8.57925 45.4189 8.15055 45.712 7.8328C46.7921 6.6858 48.8861 7.02938 49.7613 8.24816C50.3041 8.99411 50.4123 9.9475 50.3958 10.8448ZM45.631 14.2039C46.7125 14.9418 49.203 10.3023 47.3642 9.74798C46.1682 9.38497 44.6997 13.1098 45.631 14.2039Z" fill="#FFF8E5"/>
</g>
<g filter="url(#filter1_di_687_7494)">
<path fill-rule="evenodd" clip-rule="evenodd" d="M45.8172 3.63416C46.4582 4.20961 46.5113 5.19574 45.9359 5.83676C45.4463 6.38214 45.047 6.70097 44.3425 7.17237L43.3169 7.85862L42.4131 7.01838C41.8585 6.50277 41.5404 6.12177 41.0879 5.42863C40.6169 4.70733 40.8199 3.74085 41.5412 3.26992C42.2506 2.80675 43.1972 2.99544 43.6762 3.68801C44.2583 3.10894 45.1985 3.07878 45.8172 3.63416Z" fill="#FFF8E5"/>
</g>
<g opacity="0.3" filter="url(#filter2_f_687_7494)">
<circle cx="42.9015" cy="4.62218" r="0.965583" transform="rotate(5.25181 42.9015 4.62218)" fill="white"/>
</g>
<g filter="url(#filter3_di_687_7494)">
<path d="M10.4234 17.608C8.68057 17.6795 6.94041 18.2173 5.27833 18.514C4.9202 18.5789 4.5347 18.5152 4.24747 18.2667C3.72351 17.8376 3.71513 17.1676 4.11964 16.6899C5.85324 14.6215 16.878 13.5967 15.1983 18.1097C15.0277 18.5933 14.7026 18.9903 14.3444 19.3468C13.573 20.0944 12.6602 20.5936 11.7214 21.1245C13.0135 21.6521 14.5798 22.4441 13.8384 24.0783C12.8224 26.3231 8.56992 26.5278 6.42713 26.537C5.8871 26.5324 5.28063 26.5928 4.74641 26.5002C4.01873 26.3685 3.66818 25.6305 4.06118 25.0372C4.39061 24.5377 5.03896 24.4586 5.59493 24.3303C5.20687 23.5086 4.09257 19.2008 5.96806 19.5828C7.26315 19.8476 6.26711 22.5863 7.13281 24.1043C8.57392 23.9316 10.0454 23.7705 11.3524 23.13C10.4747 22.6632 9.51883 22.5834 8.60062 22.2957C7.75748 22.0296 7.51963 21.1054 8.11766 20.5209C8.90204 19.7574 9.95197 19.3174 10.9009 18.7417C12.5271 17.7923 12.1215 17.5265 10.4234 17.608Z" fill="#FFF8E5"/>
<path d="M17.8641 21.0379L17.7818 21.0899C17.7741 22.1844 19.2083 21.3562 20.3333 20.9379C21.6099 20.4317 22.1755 21.5712 21.2048 22.3678C20.7599 22.7329 20.1461 23.0128 19.8529 23.144C18.9041 23.5739 17.9064 23.5128 16.9622 23.111C13.6851 21.6873 16.3878 15.8767 20.0971 16.222C21.8485 16.383 22.1624 18.3642 21.2045 19.5825C20.3117 20.7213 19.3514 21.0357 17.9508 21.0293L17.8641 21.0379ZM20.1209 17.9258C19.2748 17.7767 18.3084 18.7625 18.0756 19.5002C18.9159 19.7374 20.2273 18.8485 20.1209 17.9258Z" fill="#FFF8E5"/>
<path d="M25.802 15.9456C25.8699 15.8951 25.9508 15.8287 26.0201 15.7926C26.4895 15.5272 27.0496 15.8797 27.0725 16.4024C27.0895 17.1591 26.8696 18.0268 26.8144 18.7906C26.7157 19.9962 28.06 20.0228 27.4431 20.8571C26.8146 21.7217 25.5777 20.4303 25.3398 19.7978C25.0276 20.3247 24.7054 20.8963 24.3298 21.3712C22.2581 23.9983 20.0537 19.4345 23.6056 16.4414C23.9422 16.1599 24.3552 15.9147 24.8043 15.8845C25.1379 15.8659 25.4642 15.9209 25.802 15.9456ZM24.3725 19.3108C24.6933 18.8705 25.1803 17.9033 25.2252 17.4759C24.798 17.1393 23.9109 18.3359 23.6478 19.0621C23.2011 20.2878 23.8322 20.0354 24.3725 19.3108Z" fill="#FFF8E5"/>
<path d="M30.1269 16.4191C30.823 16.0873 32.2818 15.2129 33.0224 15.4746C33.3559 15.6018 33.6171 15.8821 33.5823 16.2647C33.4823 17.1642 30.0776 16.949 29.7396 20.5847C29.6743 21.2474 29.9338 22.2424 29.0226 22.4644C26.6038 23.0698 27.2466 15.758 29.1959 15.5639C29.7735 15.5064 30.0751 15.8993 30.1269 16.4191Z" fill="#FFF8E5"/>
</g>
<g filter="url(#filter4_di_687_7494)">
<path d="M19.0204 27.0013C17.1144 29.2961 12.0625 28.22 14.4345 26.3306C17.6719 23.7486 33.3699 22.2921 35.0667 23.2689C36.4183 25.3886 25.0948 26.1498 22.3855 26.4773C21.2432 26.6193 20.156 26.824 19.0204 27.0013ZM39.7991 24.2213C36.0776 24.922 34.4432 22.9103 37.9205 22.2921C43.2442 21.3628 42.977 23.623 39.7991 24.2213Z" fill="#FFF8E5"/>
</g>
<g filter="url(#filter5_di_687_7494)">
<path fill-rule="evenodd" clip-rule="evenodd" d="M3.96077 8.79683C3.49141 10.0585 4.13369 11.4618 5.39535 11.9311C6.46877 12.3305 7.25281 12.4818 8.56995 12.6228L10.4874 12.828L11.1282 11.0091C11.5214 9.89298 11.685 9.13482 11.8081 7.84709C11.9363 6.50707 10.9538 5.31691 9.61377 5.18879C8.29583 5.06279 7.12285 6.01105 6.96267 7.31721C5.73672 6.93842 4.41378 7.57915 3.96077 8.79683Z" fill="#FFF8E5"/>
</g>
<g opacity="0.3" filter="url(#filter6_f_687_7494)">
<circle cx="1.50892" cy="1.50892" r="1.50892" transform="matrix(-0.839326 0.543628 0.543628 0.839326 9.15918 5.96143)" fill="white"/>
</g>
<g filter="url(#filter7_di_687_7494)">
<path fill-rule="evenodd" clip-rule="evenodd" d="M12.1482 3.40888C11.8867 3.63892 11.8612 4.03739 12.0912 4.29888C12.287 4.52136 12.4471 4.65188 12.73 4.84532L13.1419 5.12692L13.5107 4.79089C13.737 4.58468 13.8671 4.43193 14.0529 4.15354C14.2462 3.86384 14.1681 3.47228 13.8784 3.27896C13.5935 3.08883 13.21 3.16128 13.0135 3.43933C12.7805 3.20286 12.4005 3.18685 12.1482 3.40888Z" fill="#FFF8E5"/>
</g>
<g opacity="0.25" filter="url(#filter8_f_687_7494)">
<ellipse cx="0.390395" cy="0.390394" rx="0.390395" ry="0.390394" transform="matrix(-0.99667 0.0815383 0.0815382 0.99667 13.668 3.49072)" fill="white"/>
</g>
<defs>
<filter id="filter0_di_687_7494" x="11.5948" y="3.48318" width="40.5974" height="19.5208" filterUnits="userSpaceOnUse" color-interpolation-filters="sRGB">
<feFlood flood-opacity="0" result="BackgroundImageFix"/>
<feColorMatrix in="SourceAlpha" type="matrix" values="0 0 0 0 0 0 0 0 0 0 0 0 0 0 0 0 0 0 127 0" result="hardAlpha"/>
<feOffset dy="0.717922"/>
<feGaussianBlur stdDeviation="0.897403"/>
<feComposite in2="hardAlpha" operator="out"/>
<feColorMatrix type="matrix" values="0 0 0 0 0.341431 0 0 0 0 0.351863 0 0 0 0 0.445752 0 0 0 0.25 0"/>
<feBlend mode="normal" in2="BackgroundImageFix" result="effect1_dropShadow_687_7494"/>
<feBlend mode="normal" in="SourceGraphic" in2="effect1_dropShadow_687_7494" result="shape"/>
<feColorMatrix in="SourceAlpha" type="matrix" values="0 0 0 0 0 0 0 0 0 0 0 0 0 0 0 0 0 0 127 0" result="hardAlpha"/>
<feOffset dy="0.897403"/>
<feGaussianBlur stdDeviation="0.673052"/>
<feComposite in2="hardAlpha" operator="arithmetic" k2="-1" k3="1"/>
<feColorMatrix type="matrix" values="0 0 0 0 1 0 0 0 0 1 0 0 0 0 1 0 0 0 1 0"/>
<feBlend mode="normal" in2="shape" result="effect2_innerShadow_687_7494"/>
</filter>
<filter id="filter1_di_687_7494" x="39.3829" y="2.14544" width="8.40323" height="7.74454" filterUnits="userSpaceOnUse" color-interpolation-filters="sRGB">
<feFlood flood-opacity="0" result="BackgroundImageFix"/>
<feColorMatrix in="SourceAlpha" type="matrix" values="0 0 0 0 0 0 0 0 0 0 0 0 0 0 0 0 0 0 127 0" result="hardAlpha"/>
<feOffset dy="0.580451"/>
<feGaussianBlur stdDeviation="0.725564"/>
<feComposite in2="hardAlpha" operator="out"/>
<feColorMatrix type="matrix" values="0 0 0 0 0.341431 0 0 0 0 0.351863 0 0 0 0 0.445752 0 0 0 0.25 0"/>
<feBlend mode="normal" in2="BackgroundImageFix" result="effect1_dropShadow_687_7494"/>
<feBlend mode="normal" in="SourceGraphic" in2="effect1_dropShadow_687_7494" result="shape"/>
<feColorMatrix in="SourceAlpha" type="matrix" values="0 0 0 0 0 0 0 0 0 0 0 0 0 0 0 0 0 0 127 0" result="hardAlpha"/>
<feOffset dy="0.725564"/>
<feGaussianBlur stdDeviation="0.544173"/>
<feComposite in2="hardAlpha" operator="arithmetic" k2="-1" k3="1"/>
<feColorMatrix type="matrix" values="0 0 0 0 1 0 0 0 0 1 0 0 0 0 1 0 0 0 1 0"/>
<feBlend mode="normal" in2="shape" result="effect2_innerShadow_687_7494"/>
</filter>
<filter id="filter2_f_687_7494" x="41.1965" y="2.91771" width="3.40969" height="3.4092" filterUnits="userSpaceOnUse" color-interpolation-filters="sRGB">
<feFlood flood-opacity="0" result="BackgroundImageFix"/>
<feBlend mode="normal" in="SourceGraphic" in2="BackgroundImageFix" result="shape"/>
<feGaussianBlur stdDeviation="0.369512" result="effect1_foregroundBlur_687_7494"/>
</filter>
<filter id="filter3_di_687_7494" x="2.38286" y="14.059" width="32.6532" height="14.5248" filterUnits="userSpaceOnUse" color-interpolation-filters="sRGB">
<feFlood flood-opacity="0" result="BackgroundImageFix"/>
<feColorMatrix in="SourceAlpha" type="matrix" values="0 0 0 0 0 0 0 0 0 0 0 0 0 0 0 0 0 0 127 0" result="hardAlpha"/>
<feOffset dy="0.580451"/>
<feGaussianBlur stdDeviation="0.725564"/>
<feComposite in2="hardAlpha" operator="out"/>
<feColorMatrix type="matrix" values="0 0 0 0 0.341431 0 0 0 0 0.351863 0 0 0 0 0.445752 0 0 0 0.25 0"/>
<feBlend mode="normal" in2="BackgroundImageFix" result="effect1_dropShadow_687_7494"/>
<feBlend mode="normal" in="SourceGraphic" in2="effect1_dropShadow_687_7494" result="shape"/>
<feColorMatrix in="SourceAlpha" type="matrix" values="0 0 0 0 0 0 0 0 0 0 0 0 0 0 0 0 0 0 127 0" result="hardAlpha"/>
<feOffset dy="0.725564"/>
<feGaussianBlur stdDeviation="0.544173"/>
<feComposite in2="hardAlpha" operator="arithmetic" k2="-1" k3="1"/>
<feColorMatrix type="matrix" values="0 0 0 0 1 0 0 0 0 1 0 0 0 0 1 0 0 0 1 0"/>
<feBlend mode="normal" in2="shape" result="effect2_innerShadow_687_7494"/>
</filter>
<filter id="filter4_di_687_7494" x="12.0187" y="20.9939" width="31.8533" height="9.81959" filterUnits="userSpaceOnUse" color-interpolation-filters="sRGB">
<feFlood flood-opacity="0" result="BackgroundImageFix"/>
<feColorMatrix in="SourceAlpha" type="matrix" values="0 0 0 0 0 0 0 0 0 0 0 0 0 0 0 0 0 0 127 0" result="hardAlpha"/>
<feOffset dy="0.717922"/>
<feGaussianBlur stdDeviation="0.897403"/>
<feComposite in2="hardAlpha" operator="out"/>
<feColorMatrix type="matrix" values="0 0 0 0 0.341431 0 0 0 0 0.351863 0 0 0 0 0.445752 0 0 0 0.25 0"/>
<feBlend mode="normal" in2="BackgroundImageFix" result="effect1_dropShadow_687_7494"/>
<feBlend mode="normal" in="SourceGraphic" in2="effect1_dropShadow_687_7494" result="shape"/>
<feColorMatrix in="SourceAlpha" type="matrix" values="0 0 0 0 0 0 0 0 0 0 0 0 0 0 0 0 0 0 127 0" result="hardAlpha"/>
<feOffset dy="0.897403"/>
<feGaussianBlur stdDeviation="0.673052"/>
<feComposite in2="hardAlpha" operator="arithmetic" k2="-1" k3="1"/>
<feColorMatrix type="matrix" values="0 0 0 0 1 0 0 0 0 1 0 0 0 0 1 0 0 0 1 0"/>
<feBlend mode="normal" in2="shape" result="effect2_innerShadow_687_7494"/>
</filter>
<filter id="filter5_di_687_7494" x="0.899442" y="3.43283" width="13.8281" height="13.4667" filterUnits="userSpaceOnUse" color-interpolation-filters="sRGB">
<feFlood flood-opacity="0" result="BackgroundImageFix"/>
<feColorMatrix in="SourceAlpha" type="matrix" values="0 0 0 0 0 0 0 0 0 0 0 0 0 0 0 0 0 0 127 0" result="hardAlpha"/>
<feOffset dy="1.16327"/>
<feGaussianBlur stdDeviation="1.45409"/>
<feComposite in2="hardAlpha" operator="out"/>
<feColorMatrix type="matrix" values="0 0 0 0 0.341431 0 0 0 0 0.351863 0 0 0 0 0.445752 0 0 0 0.25 0"/>
<feBlend mode="normal" in2="BackgroundImageFix" result="effect1_dropShadow_687_7494"/>
<feBlend mode="normal" in="SourceGraphic" in2="effect1_dropShadow_687_7494" result="shape"/>
<feColorMatrix in="SourceAlpha" type="matrix" values="0 0 0 0 0 0 0 0 0 0 0 0 0 0 0 0 0 0 127 0" result="hardAlpha"/>
<feOffset dy="1.45409"/>
<feGaussianBlur stdDeviation="1.09057"/>
<feComposite in2="hardAlpha" operator="arithmetic" k2="-1" k3="1"/>
<feColorMatrix type="matrix" values="0 0 0 0 1 0 0 0 0 1 0 0 0 0 1 0 0 0 1 0"/>
<feBlend mode="normal" in2="shape" result="effect2_innerShadow_687_7494"/>
</filter>
<filter id="filter6_f_687_7494" x="5.7939" y="5.12886" width="5.83799" height="5.83848" filterUnits="userSpaceOnUse" color-interpolation-filters="sRGB">
<feFlood flood-opacity="0" result="BackgroundImageFix"/>
<feBlend mode="normal" in="SourceGraphic" in2="BackgroundImageFix" result="shape"/>
<feGaussianBlur stdDeviation="0.705102" result="effect1_foregroundBlur_687_7494"/>
</filter>
<filter id="filter7_di_687_7494" x="8.14081" y="0.896593" width="9.81214" height="9.54163" filterUnits="userSpaceOnUse" color-interpolation-filters="sRGB">
<feFlood flood-opacity="0" result="BackgroundImageFix"/>
<feColorMatrix in="SourceAlpha" type="matrix" values="0 0 0 0 0 0 0 0 0 0 0 0 0 0 0 0 0 0 127 0" result="hardAlpha"/>
<feOffset dy="1.51751"/>
<feGaussianBlur stdDeviation="1.89688"/>
<feComposite in2="hardAlpha" operator="out"/>
<feColorMatrix type="matrix" values="0 0 0 0 0.341431 0 0 0 0 0.351863 0 0 0 0 0.445752 0 0 0 0.25 0"/>
<feBlend mode="normal" in2="BackgroundImageFix" result="effect1_dropShadow_687_7494"/>
<feBlend mode="normal" in="SourceGraphic" in2="effect1_dropShadow_687_7494" result="shape"/>
<feColorMatrix in="SourceAlpha" type="matrix" values="0 0 0 0 0 0 0 0 0 0 0 0 0 0 0 0 0 0 127 0" result="hardAlpha"/>
<feOffset dy="0.554113"/>
<feGaussianBlur stdDeviation="0.277057"/>
<feComposite in2="hardAlpha" operator="arithmetic" k2="-1" k3="1"/>
<feColorMatrix type="matrix" values="0 0 0 0 1 0 0 0 0 1 0 0 0 0 1 0 0 0 1 0"/>
<feBlend mode="normal" in2="shape" result="effect2_innerShadow_687_7494"/>
</filter>
<filter id="filter8_f_687_7494" x="12.5551" y="3.15614" width="1.51096" height="1.51096" filterUnits="userSpaceOnUse" color-interpolation-filters="sRGB">
<feFlood flood-opacity="0" result="BackgroundImageFix"/>
<feBlend mode="normal" in="SourceGraphic" in2="BackgroundImageFix" result="shape"/>
<feGaussianBlur stdDeviation="0.182427" result="effect1_foregroundBlur_687_7494"/>
</filter>
</defs>
</svg>
