<svg width="150" height="52" viewBox="0 0 150 52" fill="none" xmlns="http://www.w3.org/2000/svg">
<path d="M0.983398 0.862637C4.333 0.862637 7.68261 0.862637 11.0322 0.862637C12.4433 0.852496 13.8464 1.07464 15.1852 1.52016C17.9653 2.45549 19.6421 4.83979 19.4922 7.71573C19.4708 8.44925 19.2824 9.16822 18.9412 9.81793C18.6001 10.4676 18.1152 11.031 17.5236 11.4651C17.1438 11.7529 16.7381 12.0047 16.3384 12.2765C16.6122 12.5443 16.966 12.6102 17.2658 12.7741C20.7113 14.6628 20.7912 19.4314 18.395 21.8556C17.1838 23.0828 15.6829 23.6883 14.0401 24.0181C13.0463 24.202 12.0368 24.2877 11.0262 24.2739C7.96841 24.2839 4.91059 24.2739 1.85278 24.2739C1.56095 24.2998 1.26687 24.2679 0.987396 24.18L0.983398 0.862637ZM7.8365 18.588C8.80581 18.588 9.70117 18.588 10.5965 18.588C10.9144 18.5879 11.232 18.5699 11.5478 18.534C11.9448 18.4882 12.324 18.3439 12.6511 18.1143C12.8889 17.9541 13.0837 17.7379 13.2184 17.4847C13.3531 17.2315 13.4236 16.9491 13.4236 16.6623C13.4236 16.3756 13.3531 16.0932 13.2184 15.84C13.0837 15.5868 12.8889 15.3706 12.6511 15.2104C12.2322 14.9233 11.7359 14.7706 11.2281 14.7727C10.1948 14.7527 9.16156 14.7607 8.12829 14.7587C8.0691 14.7568 8.01054 14.7713 7.95905 14.8006C7.90757 14.8298 7.86516 14.8728 7.8365 14.9246V18.588ZM7.85049 10.122C8.98168 10.122 10.0369 10.122 11.0942 10.122C11.3329 10.1138 11.5688 10.0687 11.7937 9.98811C12.6491 9.71231 13.1067 9.1667 13.1147 8.40124C13.1313 8.01104 13.0085 7.62767 12.7683 7.31972C12.5281 7.01177 12.1862 6.79935 11.8037 6.72045C10.5086 6.39468 9.19153 6.55256 7.85049 6.59054V10.122Z" fill="white"/>
<path d="M54.4371 0.383037C55.3605 0.622866 56.3198 0.678823 57.2251 1.00459C58.0214 1.25874 58.7858 1.60342 59.5035 2.03186V7.82772C59.1897 7.94363 59.0079 7.68982 58.788 7.5779C57.0157 6.64304 55.0258 6.19869 53.0241 6.29081C52.4633 6.30086 51.9119 6.4375 51.4113 6.69053C50.5959 7.13821 50.5459 7.93164 51.2934 8.47325C51.7337 8.77203 52.2159 9.00373 52.7243 9.16076C54.1145 9.6052 55.4744 10.1393 56.7954 10.7596C58.3243 11.5251 59.6354 12.5284 60.3709 14.1392C61.1345 15.8598 61.2054 17.8085 60.5688 19.5799C59.9323 21.3514 58.6373 22.8093 56.9533 23.6504C55.1546 24.5318 53.218 24.8216 51.2234 24.7476C49.045 24.6677 46.9605 24.214 45.0278 23.1887C44.84 23.0888 44.6561 22.9889 44.4742 22.873C44.4027 22.818 44.3359 22.7571 44.2744 22.6911V16.5914C44.5462 16.4995 44.6741 16.7274 44.83 16.8373C46.702 18.1288 48.9135 18.8393 51.1874 18.8798C51.827 18.8878 52.4606 18.7562 53.0441 18.4941C53.5518 18.2683 53.9535 17.9365 53.9954 17.3229C54.0334 16.7433 53.6956 16.3896 53.256 16.0918C52.6007 15.6858 51.8962 15.3654 51.1595 15.1385C49.6565 14.6029 48.1936 13.9953 46.8565 13.0939C43.2031 10.6277 43.369 5.49938 46.0331 2.90123C47.3982 1.57018 49.051 0.860702 50.8996 0.538932C51.1295 0.49896 51.3853 0.558914 51.5792 0.373047L54.4371 0.383037Z" fill="white"/>
<path d="M55.234 51.4983C54.4566 51.3364 53.6791 51.1845 52.9057 51.0087C51.6006 50.7135 50.3582 50.1891 49.2363 49.4598V43.3361C49.5141 43.2842 49.636 43.492 49.8079 43.604C51.7905 44.893 53.925 45.6865 56.3272 45.6025C56.968 45.592 57.5974 45.4326 58.1659 45.1369C59.1652 44.5912 59.2452 43.578 58.3298 42.8964C57.6363 42.3808 56.8309 42.097 56.0235 41.8312C54.5514 41.374 53.1488 40.7177 51.8544 39.8806C48.1011 37.3564 48.243 31.9783 51.3828 29.3142C52.8078 28.115 54.4746 27.4735 56.3053 27.2436C59.1107 26.8733 61.9616 27.3934 64.4554 28.7306V34.6284C64.1457 34.6623 63.9458 34.4285 63.7 34.3026C61.7234 33.3493 59.6709 32.8197 57.4564 33.1194C57.0048 33.1632 56.5713 33.3192 56.1953 33.5731C55.6217 33.9728 55.5838 34.5724 56.0894 35.0581C56.4144 35.3331 56.787 35.5464 57.1886 35.6876C58.8454 36.3971 60.6102 36.8448 62.1851 37.7381C63.9838 38.7474 65.3208 40.1025 65.7685 42.183C66.6379 46.2161 64.3855 49.8535 60.3284 51.0027C59.6429 51.2025 58.9294 51.2345 58.2559 51.4983H55.234Z" fill="white"/>
<path d="M124.802 0.383057C125.524 0.538945 126.251 0.674847 126.965 0.856717C127.954 1.09238 128.899 1.48653 129.763 2.02389V7.92766C129.003 7.58191 128.342 7.19818 127.62 6.95036C126.221 6.44258 124.734 6.22102 123.247 6.29882C122.688 6.31134 122.14 6.45802 121.649 6.72652C120.893 7.1802 120.867 7.94965 121.583 8.46928C122.023 8.76789 122.504 9.0002 123.012 9.15878C124.274 9.56923 125.513 10.0489 126.723 10.5958C127.083 10.7676 127.44 10.9455 127.784 11.1434C130.137 12.4944 131.354 14.5289 131.278 17.245C131.198 20.1509 129.849 22.3454 127.245 23.6404C124.563 24.9795 121.713 25.0015 118.835 24.4279C117.322 24.1582 115.879 23.5873 114.592 22.7491V16.5935C114.871 16.5735 115.003 16.7673 115.173 16.8793C117.03 18.1444 119.216 18.839 121.463 18.8778C122.157 18.8955 122.844 18.7388 123.461 18.4222C124.523 17.8726 124.582 16.8453 123.611 16.1458C122.91 15.6421 122.1 15.3763 121.301 15.0885C119.839 14.5965 118.443 13.9252 117.146 13.09C113.327 10.5358 113.62 4.95779 116.834 2.4196C118.115 1.41741 119.638 0.770166 121.249 0.54294C121.483 0.506966 121.731 0.542942 121.938 0.383057H124.802Z" fill="white"/>
<path d="M142.833 0.383057C143.554 0.538945 144.282 0.674847 144.995 0.856717C145.985 1.09218 146.929 1.48634 147.793 2.02389V7.95365C147.037 7.52967 146.247 7.16935 145.431 6.87641C144.095 6.41626 142.682 6.22009 141.272 6.29882C140.712 6.31032 140.163 6.45706 139.673 6.72652C138.917 7.1802 138.889 7.94965 139.605 8.46928C140.046 8.76752 140.528 8.99979 141.036 9.15878C142.298 9.56957 143.537 10.0493 144.747 10.5958C145.107 10.7676 145.463 10.9455 145.808 11.1434C148.159 12.4944 149.376 14.5289 149.302 17.245C149.222 20.1509 147.871 22.3454 145.267 23.6404C142.587 24.9795 139.737 25.0015 136.857 24.4279C135.345 24.1579 133.903 23.587 132.616 22.7491V16.5935C132.894 16.5735 133.028 16.7673 133.197 16.8793C135.054 18.1444 137.24 18.839 139.487 18.8778C140.181 18.8955 140.868 18.7388 141.486 18.4222C142.545 17.8726 142.605 16.8453 141.635 16.1458C140.934 15.6421 140.124 15.3763 139.325 15.0885C137.863 14.5965 136.467 13.9252 135.17 13.09C131.349 10.5478 131.641 4.97977 134.854 2.43159C136.135 1.4251 137.659 0.773706 139.271 0.54294C139.505 0.506966 139.753 0.542942 139.961 0.383057H142.833Z" fill="white"/>
<path d="M87.3183 12.9739V0.904541H93.6378C93.8137 1.45215 93.8816 22.9408 93.7018 24.2099H87.2324C85.8794 22.1933 84.5064 20.1428 83.1293 18.0943C81.7523 16.0457 80.3833 14.0032 78.8804 11.9946V24.2059H72.417V0.904541H78.8964L87.1505 13.0079L87.3183 12.9739Z" fill="white"/>
<path d="M40.5068 50.9727L32.2626 38.6855L32.1307 38.7135V50.9747H25.6514V27.6754H32.1547L40.3828 39.7428L40.5227 39.7248V27.6494H46.9022C47.09 28.219 47.152 49.8036 46.9681 50.9727H40.5068Z" fill="white"/>
<path d="M77.2451 51.0228V27.7314C77.4216 27.6236 77.6298 27.5798 77.8347 27.6075C80.6327 27.6295 83.4167 27.5276 86.2047 27.6635C88.8868 27.7974 91.401 28.5329 93.5634 30.1597C96.6373 32.4681 98.0063 35.6538 97.9963 39.4351C97.9803 45.6846 93.7313 49.6478 88.3372 50.687C87.0572 50.9282 85.7564 51.042 84.454 51.0268C82.3275 51.0148 80.203 51.0268 78.0765 51.0268L77.2451 51.0228ZM84.0523 33.7971V44.7513C84.6494 44.8202 85.2518 44.8309 85.851 44.7832C88.7749 44.6753 90.7135 42.9845 91.0473 40.1006C91.3311 37.6823 90.5076 35.416 88.1653 34.3247C86.8742 33.7252 85.5012 33.7371 84.0523 33.7971Z" fill="white"/>
<path d="M131.818 42.8086L137.814 50.9747H129.8L125.449 43.8898L125.289 43.9198V50.9727H118.472V27.7154C118.606 27.6221 118.771 27.5835 118.933 27.6074C122.095 27.6394 125.259 27.4995 128.419 27.7054C130.07 27.7884 131.677 28.2646 133.107 29.0944C135.326 30.4094 136.411 32.422 136.595 34.9342C136.845 38.3318 135.486 40.864 132.444 42.4528C132.256 42.5527 132.076 42.6607 131.818 42.8086ZM125.289 38.6116C126.458 38.7595 127.449 38.6855 128.209 38.4117C128.655 38.2682 129.044 37.987 129.321 37.6086C129.597 37.2301 129.747 36.7739 129.748 36.3052C129.779 35.8375 129.661 35.3719 129.409 34.9764C129.157 34.5809 128.786 34.2762 128.349 34.1068C127.365 33.6951 126.35 33.7291 125.295 33.823L125.289 38.6116Z" fill="white"/>
<path d="M21.5771 0.896973H28.1844C28.3842 1.17877 28.2883 1.49655 28.2883 1.81232C28.2963 6.01732 28.2963 10.223 28.2883 14.4293C28.2661 15.1487 28.3675 15.8666 28.5881 16.5518C29.0198 17.7749 29.8851 18.4664 31.1862 18.6003C33.6644 18.8561 35.2613 17.4991 35.2873 14.9909C35.3313 10.626 35.3033 6.26114 35.3093 1.89626C35.3093 1.58248 35.2493 1.26071 35.3912 0.908964H42.0525C42.2003 1.02088 42.1644 1.19076 42.1644 1.34465C42.1644 6.00132 42.1984 10.66 42.1384 15.3167C42.1417 17.6838 41.2566 19.9661 39.6582 21.7121C38.2452 23.273 36.4604 24.1524 34.4359 24.5701C31.7878 25.1137 29.1856 24.9698 26.7254 23.7886C23.5277 22.2697 21.9768 19.5916 21.5751 16.1581C21.4828 15.1503 21.4494 14.1379 21.4752 13.1262C21.4752 9.37292 21.4752 5.62159 21.4752 1.86828C21.4772 1.56249 21.4112 1.23673 21.5771 0.896973Z" fill="white"/>
<path d="M99.915 27.6575H115.952V33.6992H106.706C106.604 34.6845 106.668 35.5478 106.652 36.4872H114.988V42.0372H106.7V44.9171H115.946V50.9468H99.915V27.6575Z" fill="white"/>
<path d="M96.6104 0.898682H112.669V6.8944H103.475V9.73237H111.728C111.815 11.605 111.76 13.3898 111.77 15.2644H103.475C103.362 16.2437 103.445 17.1391 103.411 18.1384H112.655V24.218H96.6104V0.898682Z" fill="white"/>
<path d="M69.5073 24.216H62.7861V0.910645H69.5073V24.216Z" fill="white"/>
<path d="M74.3296 50.9989H67.6084V27.6655H74.3296V50.9989Z" fill="white"/>
<path d="M16.042 27.6616H22.7672V50.973H16.042V27.6616Z" fill="white"/>
</svg>
