<svg width="231" height="30" viewBox="0 0 231 30" fill="none" xmlns="http://www.w3.org/2000/svg">
<path d="M0.161541 21.9661V2.43857C0.161541 2.03076 0.302704 1.68047 0.585029 1.38769C0.867354 1.09491 1.21242 0.948517 1.62022 0.948517H13.5877C19.9139 0.948517 23.0769 3.86588 23.0769 9.7006C23.0769 15.5249 19.9139 18.437 13.5877 18.437H6.07469V21.9661C6.07469 22.3739 5.9283 22.7242 5.63551 23.0169C5.35319 23.2993 5.00812 23.4404 4.60032 23.4404H1.65159C1.24379 23.4404 0.893496 23.2993 0.600714 23.0169C0.307932 22.7242 0.161541 22.3739 0.161541 21.9661ZM6.07469 13.9982H11.7996C13.5563 13.9982 14.8895 13.7054 15.7992 13.1199C16.7089 12.5239 17.1638 11.3841 17.1638 9.7006C17.1638 8.00665 16.7089 6.86689 15.7992 6.28133C14.8895 5.68531 13.5563 5.3873 11.7996 5.3873H6.07469V13.9982ZM23.6573 21.9974L27.5941 7.06556C28.6607 2.99799 32.1323 0.958973 38.0088 0.948517H46.4629C46.8498 0.948517 47.1687 1.09491 47.4197 1.38769C47.6811 1.68047 47.8118 2.02031 47.8118 2.4072V21.9974C47.8118 22.4052 47.6654 22.7503 47.3726 23.0326C47.0798 23.3045 46.7295 23.4404 46.3217 23.4404H43.373C42.9443 23.4404 42.5888 23.3045 42.3064 23.0326C42.0346 22.7503 41.8986 22.3948 41.8986 21.9661V18.0135H30.7468L29.6959 21.9661C29.5913 22.3948 29.3561 22.7503 28.9901 23.0326C28.6241 23.3045 28.2372 23.4404 27.8294 23.4404H24.7395C24.3317 23.4404 24.0389 23.3254 23.8612 23.0954C23.6834 22.8549 23.5945 22.6457 23.5945 22.468C23.605 22.2902 23.6259 22.1334 23.6573 21.9974ZM31.9074 13.5747H41.8986V5.3873H37.4285C36.4247 5.3873 35.5463 5.67485 34.7934 6.24996C34.051 6.81461 33.5491 7.57793 33.2877 8.53993L31.9074 13.5747ZM52.2976 21.9974V2.43857C52.2976 2.03076 52.444 1.68047 52.7368 1.38769C53.0296 1.09491 53.3799 0.948517 53.7877 0.948517H56.705C57.1337 0.948517 57.4893 1.09491 57.7716 1.38769C58.0644 1.68047 58.2108 2.03076 58.2108 2.43857V21.9661C58.2108 22.3739 58.0591 22.7242 57.7559 23.0169C57.4631 23.2993 57.1128 23.4404 56.705 23.4404H53.7877C53.3799 23.4404 53.0296 23.3045 52.7368 23.0326C52.444 22.7503 52.2976 22.4052 52.2976 21.9974ZM72.0447 3.91293V2.43857C72.0447 2.00985 72.1859 1.65433 72.4682 1.372C72.7505 1.08968 73.106 0.948517 73.5347 0.948517H93.4387C93.8674 0.948517 94.2229 1.08968 94.5052 1.372C94.7876 1.65433 94.9287 2.00985 94.9287 2.43857V3.91293C94.9287 4.34165 94.7876 4.69717 94.5052 4.97949C94.2229 5.25136 93.8674 5.3873 93.4387 5.3873H86.4433V21.9974C86.4433 22.4052 86.2969 22.7503 86.0041 23.0326C85.7218 23.3045 85.3767 23.4404 84.9689 23.4404H82.0045C81.5967 23.4404 81.2464 23.3045 80.9536 23.0326C80.6713 22.7503 80.5301 22.4052 80.5301 21.9974V5.3873H73.5347C73.106 5.3873 72.7505 5.25136 72.4682 4.97949C72.1859 4.69717 72.0447 4.34165 72.0447 3.91293ZM97.0618 21.4642C95.4515 19.9375 94.6464 17.7416 94.6464 14.8766C94.6464 12.001 95.4568 9.79471 97.0775 8.2576C98.6983 6.71004 100.946 5.93626 103.822 5.93626C106.698 5.93626 108.94 6.68913 110.551 8.19487C112.161 9.69014 112.966 11.839 112.966 14.6413V15.5353C112.966 15.8176 112.872 16.0529 112.684 16.2411C112.506 16.4189 112.276 16.5078 111.994 16.5078H100.183C100.288 17.7939 100.654 18.7298 101.281 19.3153C101.919 19.9009 102.933 20.1937 104.324 20.1937C105.715 20.1937 106.666 19.88 107.179 19.2526C107.691 18.6252 108.323 18.3063 109.076 18.2958H111.413C111.696 18.2958 111.926 18.3899 112.104 18.5782C112.292 18.7559 112.386 18.986 112.386 19.2683C112.386 22.2693 109.526 23.7646 103.806 23.7541C100.92 23.7541 98.6721 22.9908 97.0618 21.4642ZM100.152 13.1983H107.445C107.341 10.7306 106.128 9.4967 103.806 9.4967C101.495 9.4967 100.277 10.7306 100.152 13.1983ZM115.852 22.4837V1.92097C115.852 1.63865 115.941 1.4086 116.119 1.23084C116.307 1.04263 116.537 0.948517 116.809 0.948517H120.322C120.594 0.948517 120.819 1.04263 120.997 1.23084C121.185 1.4086 121.279 1.63865 121.279 1.92097V22.4837C121.279 22.7555 121.185 22.9856 120.997 23.1738C120.819 23.3515 120.594 23.4404 120.322 23.4404H116.809C116.537 23.4404 116.307 23.3515 116.119 23.1738C115.941 22.9856 115.852 22.7555 115.852 22.4837ZM126.581 21.4642C124.97 19.9375 124.165 17.7416 124.165 14.8766C124.165 12.001 124.975 9.79471 126.596 8.2576C128.217 6.71004 130.465 5.93626 133.341 5.93626C136.216 5.93626 138.459 6.68913 140.069 8.19487C141.68 9.69014 142.485 11.839 142.485 14.6413V15.5353C142.485 15.8176 142.391 16.0529 142.203 16.2411C142.025 16.4189 141.795 16.5078 141.512 16.5078H129.702C129.806 17.7939 130.172 18.7298 130.8 19.3153C131.438 19.9009 132.452 20.1937 133.843 20.1937C135.233 20.1937 136.185 19.88 136.697 19.2526C137.21 18.6252 137.842 18.3063 138.595 18.2958H140.932C141.214 18.2958 141.444 18.3899 141.622 18.5782C141.81 18.7559 141.905 18.986 141.905 19.2683C141.905 22.2693 139.045 23.7646 133.325 23.7541C130.439 23.7541 128.191 22.9908 126.581 21.4642ZM129.67 13.1983H136.964C136.859 10.7306 135.646 9.4967 133.325 9.4967C131.014 9.4967 129.796 10.7306 129.67 13.1983ZM152.335 22.1229C149.961 22.1229 148.042 21.4066 146.579 19.9741C145.125 18.5416 144.398 16.5548 144.398 14.0139C144.398 11.473 145.23 9.49147 146.892 8.06939C148.555 6.6473 150.939 5.93626 154.045 5.93626C155.561 5.93626 157.134 6.1088 158.766 6.45386C160.397 6.78847 161.625 7.2015 162.452 7.69295V22.217C162.452 24.5488 161.683 26.2689 160.146 27.3773C158.609 28.4961 156.449 29.0556 153.668 29.0556C150.897 29.0556 148.759 28.7053 147.253 28.0047C145.758 27.3146 145.01 26.1696 145.01 24.5697C145.01 24.2874 145.099 24.0521 145.277 23.8639C145.465 23.6862 145.7 23.5973 145.983 23.5973H148.32C149.072 23.5973 149.674 23.8744 150.123 24.4286C150.698 25.1396 151.718 25.4951 153.182 25.4951C154.656 25.4951 155.665 25.2546 156.209 24.7736C156.753 24.2926 157.025 23.4404 157.025 22.217V21.4798C155.352 21.9086 153.788 22.1229 152.335 22.1229ZM153.715 9.73197C151.237 9.72151 149.998 11.1541 149.998 14.0296C149.998 16.8947 151.206 18.3272 153.621 18.3272C154.625 18.3272 155.759 18.1704 157.025 17.8567V10.077C156.125 9.83653 155.022 9.72151 153.715 9.73197ZM178.215 10.2339L175.799 10.1398C174.388 10.1398 173.039 10.9136 171.753 12.4611V22.4837C171.753 22.766 171.658 22.996 171.47 23.1738C171.292 23.3515 171.068 23.4404 170.796 23.4404H167.282C167 23.4404 166.77 23.3515 166.592 23.1738C166.415 22.996 166.326 22.766 166.326 22.4837V7.22241C166.326 6.94009 166.415 6.71004 166.592 6.53228C166.781 6.34407 167.011 6.24996 167.282 6.24996H170.796C171.078 6.24996 171.308 6.34407 171.486 6.53228C171.664 6.71004 171.753 6.94009 171.753 7.22241V8.21055C172.819 7.43677 173.844 6.86689 174.827 6.50091C175.82 6.12448 177.117 5.93626 178.717 5.93626C178.999 5.93626 179.229 6.03037 179.407 6.21859C179.595 6.39635 179.689 6.62116 179.689 6.89303V9.27711C179.689 9.55944 179.595 9.78948 179.407 9.96724C179.229 10.145 178.999 10.2339 178.717 10.2339H178.215ZM182.732 22.3111C181.352 21.3491 180.661 19.9898 180.661 18.2331C180.661 16.4764 181.352 15.1275 182.732 14.1864C184.123 13.2454 185.911 12.7748 188.096 12.7748H193.288C193.288 11.5514 193.032 10.6992 192.519 10.2182C192.007 9.7372 191.108 9.4967 189.821 9.4967C188.546 9.4967 187.646 9.81562 187.124 10.4535C186.611 11.0809 185.979 11.3946 185.226 11.3946H182.889C182.606 11.3946 182.371 11.3057 182.183 11.1279C182.005 10.9397 181.916 10.7097 181.916 10.4378C181.916 7.43677 184.766 5.93626 190.464 5.93626C192.953 5.93626 194.95 6.49569 196.456 7.61453C197.962 8.72292 198.715 10.443 198.715 12.7748V22.4837C198.715 22.766 198.626 22.996 198.448 23.1738C198.27 23.3515 198.04 23.4404 197.758 23.4404H194.731C194.448 23.4404 194.218 23.3515 194.041 23.1738C193.863 22.9856 193.774 22.7555 193.774 22.4837V21.9974C192.122 23.179 190.214 23.7646 188.049 23.7541C185.895 23.7541 184.123 23.2731 182.732 22.3111ZM188.472 16.3352C187.741 16.3352 187.16 16.513 186.731 16.8685C186.313 17.224 186.104 17.6841 186.104 18.2488C186.104 18.8134 186.324 19.2787 186.763 19.6447C187.202 20.0107 187.824 20.1937 188.629 20.1937C190.24 20.1937 191.792 19.7231 193.288 18.7821V16.3352H188.472ZM202.589 22.4837V7.22241C202.589 6.94009 202.678 6.71004 202.855 6.53228C203.044 6.34407 203.274 6.24996 203.546 6.24996H207.059C207.341 6.24996 207.571 6.34407 207.749 6.53228C207.927 6.71004 208.016 6.94009 208.016 7.22241V8.21055C208.769 7.4786 209.506 6.91917 210.227 6.53228C210.959 6.13494 211.838 5.93626 212.862 5.93626C215.299 5.93626 217.144 6.94009 218.399 8.94773C220.344 6.92963 222.336 5.92581 224.375 5.93626C226.424 5.93626 228.04 6.5532 229.221 7.78706C230.413 9.01047 231.009 10.9083 231.009 13.4806V22.4837C231.009 22.766 230.921 22.996 230.743 23.1738C230.565 23.3515 230.335 23.4404 230.053 23.4404H226.555C226.273 23.4404 226.037 23.3515 225.849 23.1738C225.671 22.9856 225.583 22.7555 225.583 22.4837V13.4806C225.583 10.9711 224.673 9.72151 222.853 9.73197C221.745 9.73197 220.6 10.5319 219.418 12.1317C219.481 12.5814 219.513 13.031 219.513 13.4806V22.4837C219.513 22.766 219.418 22.996 219.23 23.1738C219.052 23.3515 218.828 23.4404 218.556 23.4404H215.058C214.776 23.4404 214.541 23.3515 214.352 23.1738C214.175 22.9856 214.086 22.7555 214.086 22.4837V13.4806C214.086 10.9711 213.176 9.72151 211.357 9.73197C210.196 9.73197 209.082 10.4796 208.016 11.9749V22.4837C208.016 22.766 207.922 22.996 207.733 23.1738C207.556 23.3515 207.331 23.4404 207.059 23.4404H203.546C203.263 23.4404 203.033 23.3515 202.855 23.1738C202.678 22.996 202.589 22.766 202.589 22.4837Z" fill="white"/>
</svg>
