<svg width="278" height="37" viewBox="0 0 278 37" fill="none" xmlns="http://www.w3.org/2000/svg">
<path d="M0.59581 32.689H32.7182V0.566652H0.59581V32.689ZM46.2227 28.9661V9.43857C46.2227 9.03076 46.3639 8.68047 46.6462 8.38769C46.9285 8.09491 47.2736 7.94852 47.6814 7.94852H59.6488C65.975 7.94852 69.1381 10.8659 69.1381 16.7006C69.1381 22.5249 65.975 25.437 59.6488 25.437H52.1359V28.9661C52.1359 29.3739 51.9895 29.7242 51.6967 30.0169C51.4144 30.2993 51.0693 30.4404 50.6615 30.4404H47.7128C47.305 30.4404 46.9547 30.2993 46.6619 30.0169C46.3691 29.7242 46.2227 29.3739 46.2227 28.9661ZM52.1359 20.9982H57.8608C59.6175 20.9982 60.9507 20.7054 61.8604 20.1199C62.7701 19.5239 63.225 18.3841 63.225 16.7006C63.225 15.0066 62.7701 13.8669 61.8604 13.2813C60.9507 12.6853 59.6175 12.3873 57.8608 12.3873H52.1359V20.9982ZM69.7185 28.9974L73.6553 14.0656C74.7219 9.99799 78.1934 7.95897 84.07 7.94852H92.5241C92.9109 7.94852 93.2299 8.09491 93.4808 8.38769C93.7422 8.68047 93.8729 9.02031 93.8729 9.4072V28.9974C93.8729 29.4052 93.7266 29.7503 93.4338 30.0326C93.141 30.3045 92.7907 30.4404 92.3829 30.4404H89.4342C89.0054 30.4404 88.6499 30.3045 88.3676 30.0326C88.0957 29.7503 87.9598 29.3948 87.9598 28.9661V25.0135H76.808L75.7571 28.9661C75.6525 29.3948 75.4172 29.7503 75.0513 30.0326C74.6853 30.3045 74.2984 30.4404 73.8906 30.4404H70.8007C70.3929 30.4404 70.1001 30.3254 69.9224 30.0954C69.7446 29.8549 69.6557 29.6457 69.6557 29.468C69.6662 29.2902 69.6871 29.1334 69.7185 28.9974ZM77.9686 20.5747H87.9598V12.3873H83.4896C82.4858 12.3873 81.6075 12.6749 80.8546 13.25C80.1122 13.8146 79.6103 14.5779 79.3489 15.5399L77.9686 20.5747ZM98.3588 28.9974V9.43857C98.3588 9.03076 98.5052 8.68047 98.7979 8.38769C99.0907 8.09491 99.441 7.94852 99.8488 7.94852H102.766C103.195 7.94852 103.55 8.09491 103.833 8.38769C104.126 8.68047 104.272 9.03076 104.272 9.43857V28.9661C104.272 29.3739 104.12 29.7242 103.817 30.0169C103.524 30.2993 103.174 30.4404 102.766 30.4404H99.8488C99.441 30.4404 99.0907 30.3045 98.7979 30.0326C98.5052 29.7503 98.3588 29.4052 98.3588 28.9974ZM118.106 10.9129V9.43857C118.106 9.00985 118.247 8.65433 118.529 8.372C118.812 8.08968 119.167 7.94852 119.596 7.94852H139.5C139.929 7.94852 140.284 8.08968 140.566 8.372C140.849 8.65433 140.99 9.00985 140.99 9.43857V10.9129C140.99 11.3416 140.849 11.6972 140.566 11.9795C140.284 12.2514 139.929 12.3873 139.5 12.3873H132.504V28.9974C132.504 29.4052 132.358 29.7503 132.065 30.0326C131.783 30.3045 131.438 30.4404 131.03 30.4404H128.066C127.658 30.4404 127.308 30.3045 127.015 30.0326C126.732 29.7503 126.591 29.4052 126.591 28.9974V12.3873H119.596C119.167 12.3873 118.812 12.2514 118.529 11.9795C118.247 11.6972 118.106 11.3416 118.106 10.9129ZM143.123 28.4642C141.513 26.9375 140.708 24.7416 140.708 21.8766C140.708 19.001 141.518 16.7947 143.139 15.2576C144.759 13.71 147.008 12.9363 149.883 12.9363C152.759 12.9363 155.002 13.6891 156.612 15.1949C158.222 16.6901 159.027 18.839 159.027 21.6413V22.5353C159.027 22.8176 158.933 23.0529 158.745 23.2411C158.567 23.4189 158.337 23.5078 158.055 23.5078H146.244C146.349 24.7939 146.715 25.7298 147.342 26.3153C147.98 26.9009 148.994 27.1937 150.385 27.1937C151.776 27.1937 152.727 26.88 153.24 26.2526C153.752 25.6252 154.385 25.3063 155.138 25.2958H157.475C157.757 25.2958 157.987 25.3899 158.165 25.5782C158.353 25.7559 158.447 25.986 158.447 26.2683C158.447 29.2693 155.587 30.7646 149.867 30.7541C146.981 30.7541 144.733 29.9908 143.123 28.4642ZM146.213 20.1983H153.506C153.402 17.7306 152.189 16.4967 149.867 16.4967C147.557 16.4967 146.338 17.7306 146.213 20.1983ZM161.913 29.4837V8.92097C161.913 8.63865 162.002 8.4086 162.18 8.23084C162.368 8.04263 162.598 7.94852 162.87 7.94852H166.383C166.655 7.94852 166.88 8.04263 167.058 8.23084C167.246 8.4086 167.34 8.63865 167.34 8.92097V29.4837C167.34 29.7555 167.246 29.9856 167.058 30.1738C166.88 30.3515 166.655 30.4404 166.383 30.4404H162.87C162.598 30.4404 162.368 30.3515 162.18 30.1738C162.002 29.9856 161.913 29.7555 161.913 29.4837ZM172.642 28.4642C171.031 26.9375 170.226 24.7416 170.226 21.8766C170.226 19.001 171.037 16.7947 172.657 15.2576C174.278 13.71 176.526 12.9363 179.402 12.9363C182.277 12.9363 184.52 13.6891 186.131 15.1949C187.741 16.6901 188.546 18.839 188.546 21.6413V22.5353C188.546 22.8176 188.452 23.0529 188.264 23.2411C188.086 23.4189 187.856 23.5078 187.574 23.5078H175.763C175.868 24.7939 176.233 25.7298 176.861 26.3153C177.499 26.9009 178.513 27.1937 179.904 27.1937C181.294 27.1937 182.246 26.88 182.758 26.2526C183.271 25.6252 183.903 25.3063 184.656 25.2958H186.993C187.276 25.2958 187.506 25.3899 187.683 25.5782C187.872 25.7559 187.966 25.986 187.966 26.2683C187.966 29.2693 185.106 30.7646 179.386 30.7541C176.5 30.7541 174.252 29.9908 172.642 28.4642ZM175.732 20.1983H183.025C182.92 17.7306 181.707 16.4967 179.386 16.4967C177.075 16.4967 175.857 17.7306 175.732 20.1983ZM198.396 29.1229C196.022 29.1229 194.104 28.4066 192.64 26.9741C191.186 25.5416 190.46 23.5548 190.46 21.0139C190.46 18.473 191.291 16.4915 192.953 15.0694C194.616 13.6473 197 12.9363 200.106 12.9363C201.622 12.9363 203.196 13.1088 204.827 13.4539C206.458 13.7885 207.687 14.2015 208.513 14.693V29.217C208.513 31.5488 207.744 33.2689 206.207 34.3773C204.67 35.4961 202.511 36.0556 199.729 36.0556C196.958 36.0556 194.82 35.7053 193.314 35.0047C191.819 34.3146 191.071 33.1696 191.071 31.5697C191.071 31.2874 191.16 31.0521 191.338 30.8639C191.526 30.6862 191.761 30.5973 192.044 30.5973H194.381C195.134 30.5973 195.735 30.8744 196.184 31.4286C196.76 32.1396 197.779 32.4951 199.243 32.4951C200.717 32.4951 201.726 32.2546 202.27 31.7736C202.814 31.2926 203.086 30.4404 203.086 29.217V28.4798C201.413 28.9086 199.849 29.1229 198.396 29.1229ZM199.776 16.732C197.298 16.7215 196.059 18.1541 196.059 21.0296C196.059 23.8947 197.267 25.3272 199.682 25.3272C200.686 25.3272 201.821 25.1704 203.086 24.8567V17.077C202.187 16.8365 201.083 16.7215 199.776 16.732ZM224.276 17.2339L221.86 17.1398C220.449 17.1398 219.1 17.9136 217.814 19.4611V29.4837C217.814 29.766 217.72 29.996 217.531 30.1738C217.354 30.3515 217.129 30.4404 216.857 30.4404H213.344C213.061 30.4404 212.831 30.3515 212.653 30.1738C212.476 29.996 212.387 29.766 212.387 29.4837V14.2224C212.387 13.9401 212.476 13.71 212.653 13.5323C212.842 13.3441 213.072 13.25 213.344 13.25H216.857C217.139 13.25 217.369 13.3441 217.547 13.5323C217.725 13.71 217.814 13.9401 217.814 14.2224V15.2106C218.88 14.4368 219.905 13.8669 220.888 13.5009C221.881 13.1245 223.178 12.9363 224.778 12.9363C225.06 12.9363 225.29 13.0304 225.468 13.2186C225.656 13.3963 225.75 13.6212 225.75 13.893V16.2771C225.75 16.5594 225.656 16.7895 225.468 16.9672C225.29 17.145 225.06 17.2339 224.778 17.2339H224.276ZM228.793 29.3111C227.413 28.3491 226.723 26.9898 226.723 25.2331C226.723 23.4764 227.413 22.1275 228.793 21.1864C230.184 20.2454 231.972 19.7748 234.157 19.7748H239.349C239.349 18.5514 239.093 17.6992 238.58 17.2182C238.068 16.7372 237.169 16.4967 235.883 16.4967C234.607 16.4967 233.708 16.8156 233.185 17.4535C232.672 18.0809 232.04 18.3946 231.287 18.3946H228.95C228.668 18.3946 228.432 18.3057 228.244 18.1279C228.066 17.9397 227.977 17.7097 227.977 17.4378C227.977 14.4368 230.827 12.9363 236.526 12.9363C239.014 12.9363 241.011 13.4957 242.517 14.6145C244.023 15.7229 244.776 17.443 244.776 19.7748V29.4837C244.776 29.766 244.687 29.996 244.509 30.1738C244.331 30.3515 244.101 30.4404 243.819 30.4404H240.792C240.51 30.4404 240.28 30.3515 240.102 30.1738C239.924 29.9856 239.835 29.7555 239.835 29.4837V28.9974C238.183 30.179 236.275 30.7646 234.11 30.7541C231.956 30.7541 230.184 30.2731 228.793 29.3111ZM234.534 23.3352C233.802 23.3352 233.221 23.513 232.793 23.8685C232.374 24.224 232.165 24.6841 232.165 25.2488C232.165 25.8134 232.385 26.2787 232.824 26.6447C233.263 27.0107 233.885 27.1937 234.691 27.1937C236.301 27.1937 237.854 26.7231 239.349 25.7821V23.3352H234.534ZM248.65 29.4837V14.2224C248.65 13.9401 248.739 13.71 248.917 13.5323C249.105 13.3441 249.335 13.25 249.607 13.25H253.12C253.402 13.25 253.632 13.3441 253.81 13.5323C253.988 13.71 254.077 13.9401 254.077 14.2224V15.2106C254.83 14.4786 255.567 13.9192 256.288 13.5323C257.02 13.1349 257.899 12.9363 258.923 12.9363C261.36 12.9363 263.205 13.9401 264.46 15.9477C266.405 13.9296 268.397 12.9258 270.436 12.9363C272.485 12.9363 274.101 13.5532 275.283 14.7871C276.475 16.0105 277.071 17.9083 277.071 20.4806V29.4837C277.071 29.766 276.982 29.996 276.804 30.1738C276.626 30.3515 276.396 30.4404 276.114 30.4404H272.616C272.334 30.4404 272.099 30.3515 271.91 30.1738C271.733 29.9856 271.644 29.7555 271.644 29.4837V20.4806C271.644 17.9711 270.734 16.7215 268.915 16.732C267.806 16.732 266.661 17.5319 265.48 19.1317C265.542 19.5814 265.574 20.031 265.574 20.4806V29.4837C265.574 29.766 265.48 29.996 265.291 30.1738C265.114 30.3515 264.889 30.4404 264.617 30.4404H261.119C260.837 30.4404 260.602 30.3515 260.413 30.1738C260.236 29.9856 260.147 29.7555 260.147 29.4837V20.4806C260.147 17.9711 259.237 16.7215 257.418 16.732C256.257 16.732 255.143 17.4796 254.077 18.9749V29.4837C254.077 29.766 253.983 29.996 253.795 30.1738C253.617 30.3515 253.392 30.4404 253.12 30.4404H249.607C249.324 30.4404 249.094 30.3515 248.917 30.1738C248.739 29.996 248.65 29.766 248.65 29.4837Z" fill="white"/>
</svg>
