<svg width="24" height="24" viewBox="0 0 24 24" fill="none" xmlns="http://www.w3.org/2000/svg">
<path d="M1.47138 10.4521L15.7674 3.32846C17.1786 2.58642 21.9643 0.21188 21.9643 0.21188C21.9643 0.21188 24.1732 -0.82698 23.9891 1.69597C23.9277 2.73483 23.4369 6.37083 22.9461 10.3037L21.4121 21.9537C21.4121 21.9537 21.2894 23.6604 20.2464 23.9573C19.2033 24.2541 17.4853 22.9184 17.1786 22.6216C16.9331 22.399 12.5769 19.0598 10.9816 17.4273C10.5521 16.982 10.0612 16.0916 11.0429 15.0527C13.2518 12.604 15.8901 9.56162 17.4853 7.63231C18.2216 6.74186 18.9579 4.66414 15.8901 7.18708L7.23886 14.2365C7.23886 14.2365 6.25716 14.9785 4.41648 14.3107C2.57579 13.6429 0.428324 12.7524 0.428324 12.7524C0.428324 12.7524 -1.04423 11.6393 1.47138 10.4521Z" fill="black"/>
</svg>
