<svg width="24" height="25" viewBox="0 0 24 25" fill="none" xmlns="http://www.w3.org/2000/svg">
<path d="M1.0615 4.16598C1.18016 3.89126 1.45077 3.71338 1.75002 3.71338H22.25C22.5186 3.71338 22.7667 3.85704 22.9005 4.09001C23.0342 4.32297 23.0331 4.60967 22.8976 4.84163L12.3848 22.8416C12.2329 23.1018 11.9399 23.2458 11.6411 23.2072C11.3423 23.1686 11.0956 22.9549 11.0147 22.6646L8.33914 13.0596L14.9742 9.3688C15.3362 9.16745 15.4664 8.71078 15.265 8.3488C15.0637 7.98682 14.607 7.8566 14.245 8.05795L7.59005 11.7598L1.20398 4.97752C0.998839 4.75965 0.942841 4.44069 1.0615 4.16598Z" fill="black"/>
</svg>
