<svg width="273" height="36" viewBox="0 0 273 36" fill="none" xmlns="http://www.w3.org/2000/svg">
<path d="M0.380859 1.8256L20.1099 1.80737C20.2507 1.81767 20.3906 1.83715 20.5288 1.86567V27.6052H10.4494V12.0544C10.1052 11.8732 9.71085 11.8105 9.32741 11.8759C6.69736 11.8759 4.06731 11.8759 1.43725 11.8759C1.08561 11.9149 0.729778 11.8877 0.388144 11.7958L0.380859 1.8256Z" fill="white"/>
<path d="M177.102 35.7393C175.892 35.4552 174.636 35.3969 173.459 34.9671C172.055 34.5165 170.766 33.7629 169.685 32.7596L172.344 29.1423C172.709 29.1423 172.872 29.4082 173.073 29.5758C174.475 30.6683 176.195 31.2744 177.972 31.3025C180.821 31.3972 182.894 29.4337 183.036 26.5451C183.036 26.1808 183.036 25.8165 183.036 25.2191C182.028 26.3043 180.706 27.0458 179.255 27.3392C175.382 28.0677 171.572 26.0169 169.907 22.2393C167.846 17.5839 169.725 12.0652 174.093 9.9014C176.705 8.60823 180.486 8.72844 182.675 10.9942C182.773 11.0622 182.88 11.1173 182.992 11.1581C183.017 10.6044 183.043 10.1127 183.072 9.53348H187.95C188.165 9.82125 188.052 10.1855 188.052 10.5207C188.052 15.8488 188.052 21.1793 188.052 26.5123C188.052 31.6631 185.203 34.8687 180.038 35.5608C179.82 35.603 179.605 35.6577 179.393 35.7247L177.102 35.7393ZM178.876 13.668C177.961 13.6539 177.062 13.9108 176.293 14.4062C175.524 14.9017 174.919 15.6136 174.553 16.4523C174.188 17.291 174.079 18.2191 174.24 19.1197C174.4 20.0204 174.824 20.8533 175.457 21.5137C176.09 22.1742 176.905 22.6326 177.798 22.8312C178.691 23.0299 179.623 22.9599 180.476 22.6301C181.329 22.3004 182.066 21.7256 182.594 20.978C183.121 20.2305 183.416 19.3436 183.44 18.429C183.473 17.8118 183.379 17.1943 183.164 16.6148C182.949 16.0353 182.617 15.5061 182.189 15.0599C181.761 14.6137 181.247 14.2599 180.677 14.0205C180.107 13.7811 179.494 13.6611 178.876 13.668Z" fill="white"/>
<path d="M266.962 27.6853H261.931C260.831 24.3874 259.727 21.0871 258.62 17.7844H258.401C257.308 21.0628 256.216 24.3413 255.123 27.6562H250.099C248.103 21.6748 246.086 15.6339 244.049 9.53356H249.429L252.802 20.8005L252.952 20.8187L256.547 9.52627H260.441C261.632 13.2236 262.838 16.9647 264.04 20.7058H264.248C265.355 16.9757 266.463 13.2431 267.57 9.50806H272.987C270.965 15.5951 268.969 21.6202 266.962 27.6853Z" fill="white"/>
<path d="M40.8146 27.6851H29.8245C29.6642 27.6851 29.5076 27.6632 29.2344 27.645L40.0314 1.84351H51.6263L40.8146 27.6851Z" fill="white"/>
<path d="M129.768 11.333V0.404785H134.718V27.6488H129.844C129.644 27.1169 129.844 26.556 129.72 26.0424C129.666 26.0424 129.582 25.9913 129.564 26.0096C126.649 29.1059 121.273 28.7817 118.18 25.1098C114.792 21.1028 115.215 14.6442 119.091 11.1472C121.506 8.96885 126.096 7.83232 129.768 11.333ZM130.132 19.0374C130.132 16.3235 128.984 14.5459 127.076 13.9011C126.059 13.5337 124.944 13.5422 123.932 13.925C122.921 14.3078 122.08 15.0396 121.561 15.9884C120.384 18.174 120.916 21.2485 122.748 22.6073C123.421 23.1351 124.231 23.4595 125.082 23.5421C125.934 23.6247 126.791 23.4621 127.553 23.0735C129.44 22.2102 130.063 20.5528 130.139 19.0374H130.132Z" fill="white"/>
<path d="M201.044 19.7329C203.502 13.6386 205.867 7.78842 208.245 1.88354H214.143C210.562 10.4986 207.003 19.0554 203.426 27.6559H198.621L187.93 1.88354H193.718L201.044 19.7329Z" fill="white"/>
<path d="M107.477 11.2236C107.517 10.5898 107.546 10.0907 107.583 9.52977H112.519V27.6633H107.641C107.412 27.1533 107.641 26.5887 107.47 26.0933C107.375 26.0933 107.291 26.0532 107.269 26.0933C104.614 28.8545 99.8492 28.8253 96.6691 25.8893C92.6621 22.181 92.6621 14.9611 96.7493 11.2746C99.9112 8.40417 103.765 8.36046 107.477 11.2236ZM98.7346 19.1102C98.7354 19.962 98.9851 20.7951 99.453 21.507C99.9209 22.2189 100.587 22.7785 101.368 23.1172C103.146 23.9003 104.884 23.7146 106.381 22.3886C108.344 20.6656 108.424 16.9245 106.585 15.0194C106.08 14.4827 105.443 14.0883 104.738 13.8755C101.55 12.9029 98.7346 15.1068 98.7346 19.1102Z" fill="white"/>
<path d="M239.044 21.2595L242.756 24.0134C241.455 25.9261 239.466 27.2635 237.204 27.7472C233.682 28.5486 230.37 28.1406 227.547 25.6963C224.724 23.252 223.755 18.939 225.077 15.2344C225.699 13.507 226.818 12.0022 228.293 10.9099C229.769 9.81754 231.535 9.18651 233.368 9.09636C234.773 8.99278 236.185 9.16986 237.521 9.61727C240.931 10.8339 242.705 13.3147 243.098 16.8263C243.205 17.8088 243.194 18.8006 243.065 19.7805H229.434C229.755 21.5654 230.724 22.6728 232.297 23.1719C234.891 23.9952 237.157 23.4524 239.044 21.2595ZM229.704 16.2944H238.053C237.623 14.3747 236.111 13.2345 234.046 13.2163C231.871 13.1944 230.17 14.3783 229.704 16.2944Z" fill="white"/>
<path d="M148.811 9.51156H153.637C153.918 10.047 153.637 10.6044 153.834 11.1144C153.877 11.1363 153.926 11.1425 153.974 11.1319C154.021 11.1212 154.063 11.0944 154.093 11.0561C156.278 8.90322 158.897 8.58632 161.655 9.54436C164.412 10.5024 165.549 12.6953 165.946 15.4019C166.208 17.2232 166.066 19.0446 166.084 20.8478C166.106 23.0807 166.084 25.3101 166.084 27.6269H161.178C160.941 27.299 161.054 26.8983 161.047 26.5341C160.996 23.4086 161.134 20.2795 160.966 17.154C160.947 16.8369 160.898 16.5223 160.821 16.2142C160.515 14.9866 159.877 14.0067 158.559 13.7444C157.899 13.5772 157.206 13.6023 156.56 13.8166C155.915 14.0309 155.344 14.4255 154.916 14.9538C154.18 15.8528 153.785 16.983 153.801 18.1448C153.765 20.9534 153.776 23.7619 153.757 26.5705C153.817 26.9389 153.775 27.3166 153.637 27.6633H148.811V9.51156Z" fill="white"/>
<path d="M69.1175 6.92181H62.2363V1.90576H81.357V6.88173H74.4941V27.6453H69.1175V6.92181Z" fill="white"/>
<path d="M86.4282 27.6708H81.4668V9.53365H86.4136V11.8104L86.5593 11.8577C86.7378 11.6173 86.9236 11.3696 87.0985 11.1292C88.3953 9.53001 90.1037 9.06009 92.0817 9.32601C92.3768 9.36608 92.6609 9.4608 92.6646 9.836C92.6646 11.3587 92.6646 12.8813 92.6646 14.4696C92.0453 14.3712 91.5499 14.2728 91.0508 14.2146C88.8433 13.9559 87.2405 15.0342 86.6795 17.1725C86.4964 17.917 86.4143 18.6827 86.4355 19.4492C86.4318 22.163 86.4282 24.8696 86.4282 27.6708Z" fill="white"/>
<path d="M23.467 7.53709C23.4657 6.38883 23.8061 5.26615 24.445 4.31203C25.0839 3.35791 25.9922 2.61552 27.0544 2.17937C28.1166 1.74323 29.2846 1.63308 30.4096 1.86294C31.5346 2.0928 32.5658 2.65227 33.3718 3.47011C34.1778 4.28796 34.7221 5.32717 34.9355 6.45543C35.1489 7.58368 35.0217 8.74992 34.5701 9.80563C34.1185 10.8614 33.3629 11.7588 32.3995 12.3837C31.4362 13.0085 30.3087 13.3325 29.1606 13.3145C28.4073 13.3092 27.6624 13.1556 26.9686 12.8624C26.2747 12.5691 25.6454 12.1421 25.1166 11.6055C24.5879 11.069 24.1701 10.4335 23.887 9.73544C23.6039 9.03736 23.4612 8.29035 23.467 7.53709Z" fill="white"/>
<path d="M144.27 27.6593H139.355V9.55493H144.27V27.6593Z" fill="white"/>
<path d="M221.186 27.6633H216.279V9.53345H221.186V27.6633Z" fill="white"/>
<path d="M215.581 3.34079C215.573 2.92478 215.648 2.51138 215.801 2.12462C215.955 1.73785 216.184 1.38543 216.474 1.08785C216.765 0.790263 217.112 0.553457 217.495 0.391161C217.879 0.228865 218.29 0.144316 218.706 0.142457C219.131 0.131295 219.555 0.205204 219.951 0.359834C220.347 0.514463 220.709 0.746712 221.014 1.04294C221.32 1.33916 221.563 1.6934 221.729 2.08486C221.896 2.47633 221.983 2.89713 221.985 3.32258C221.988 3.74677 221.906 4.16732 221.744 4.55909C221.581 4.95087 221.341 5.30581 221.038 5.60269C220.735 5.89957 220.375 6.13229 219.98 6.28693C219.585 6.44157 219.163 6.51494 218.739 6.50268C218.322 6.51061 217.907 6.43422 217.52 6.27808C217.133 6.12194 216.782 5.88927 216.487 5.59402C216.192 5.29877 215.96 4.94701 215.804 4.55983C215.648 4.17265 215.572 3.75802 215.581 3.34079Z" fill="white"/>
<path d="M144.998 3.34091C145.007 3.76525 144.929 4.18691 144.769 4.58005C144.609 4.97319 144.37 5.32954 144.068 5.62727C143.765 5.92499 143.405 6.15782 143.01 6.3115C142.614 6.46518 142.191 6.53647 141.767 6.52101C141.351 6.52294 140.938 6.44238 140.553 6.28398C140.169 6.12558 139.819 5.89249 139.524 5.59816C139.23 5.30383 138.997 4.95408 138.839 4.56915C138.68 4.18422 138.6 3.77171 138.602 3.35547C138.602 2.93144 138.687 2.51173 138.851 2.12076C139.015 1.72978 139.255 1.37535 139.558 1.07807C139.86 0.780791 140.218 0.546595 140.612 0.389123C141.006 0.23165 141.427 0.154046 141.851 0.160807C142.267 0.159807 142.68 0.241615 143.064 0.401485C143.449 0.561354 143.797 0.796078 144.09 1.09201C144.383 1.38795 144.614 1.73919 144.77 2.12527C144.926 2.51135 145.004 2.92458 144.998 3.34091Z" fill="white"/>
</svg>
